<svg xmlns="http://www.w3.org/2000/svg" width="378" height="380"><path fill="#FAFBFB" d="M0 0h378v380H0z"/><path fill="#E0A240" d="M269.758 139.164c6.117 5.01 10.61 10.377 13.242 17.836l1.043 1.82c2.418 5.508 1.767 12.529.047 18.16-3.512 8.006-8.262 16.417-15.09 22.02-4.112 1.318-6.44.76-10.375-.875-7.465-3.076-14.61-3.266-22.562-3.187l-2.65.013q-3.207.02-6.413.049c20.338-24 20.338-24 33.582-25.242 4.433-.117 7.513-.006 11.418 2.242-4.315-4.548-6.88-6.144-13.125-6.375-12.099.221-20.316 9.798-28.875 17.375-13.542 11.981-27.38 20.806-44 28l-2.82 1.246c-13.456 5.42-27.718 7.116-42.118 7.191l-3.333.03c-15.509-.162-31.637-4.436-43.042-15.545-6.337-7.218-8.617-12.988-8.132-22.715.844-6.083 3.218-9.412 7.945-13.332 14.272-9.864 34.32-14.372 51.5-11.875 5.585 1.392 10.75 3.684 16 6 1.992.69 3.99 1.366 6 2l-1 2-2.899.044c-3.62.06-7.239.136-10.858.218q-2.33.05-4.66.084c-18.05.184-18.05.184-34.583 6.654h-2c1.27 4.824 1.27 4.824 5 8 18.144 4.857 38.957-2.394 54.883-11.02 10.478-6.064 19.811-13.844 29.172-21.468 17.514-13.821 48.697-23.539 68.703-9.348"/><path fill="#625550" d="M93 16c2.524 1.356 4.424 2.563 6.625 4.313l1.82 1.372A380 380 0 0 1 107 26l3.277 2.55a681 681 0 0 1 4.955 3.905 521 521 0 0 0 11.213 8.658l2.873 2.166q2.826 2.125 5.663 4.24l2.624 1.977 2.349 1.756c3.65 3.119 5.391 6.3 7.046 10.748l1.563 3.438C149.879 68.7 150.576 71.524 151 75c-4.624-1.598-8.393-4.066-12.437-6.75q-2.26-1.48-4.52-2.957l-2.444-1.6c-4.721-3.075-9.472-6.103-14.224-9.13l-2.799-1.79C109.782 49.717 104.965 46.767 100 44c.958.715 1.916 1.43 2.902 2.168 6.626 4.957 13.239 9.928 19.798 14.972 9.969 7.68 9.969 7.68 20.3 14.86l2.39 1.805c2.634 1.566 2.634 1.566 5.598.191C154 77 154 77 156.543 78.098l2.644 1.965 3.11 2.218 1.744 1.281c3.93 2.884 7.91 5.696 11.897 8.5l2.475 1.807 2.364 1.666 2.102 1.512c2.775 1.247 4.255.83 7.121-.047 2.3-1.164 2.3-1.164 4.625-2.75l2.84-1.863C205.013 87.312 212.512 82.163 220 77l4 2v4c-1.585 1.536-1.585 1.536-3.805 2.988l-2.446 1.632-2.624 1.692-5.23 3.47-2.557 1.675c-2.88 1.9-5.707 3.865-8.525 5.856l-2.293 1.613L195 103c4.472 4.982 9.787 8.368 15.375 12 13.764 9.022 13.764 9.022 17.625 12v2c-4.881 1.056-6.971 1.506-11.535-.738a124 124 0 0 1-3.528-2.575l-3.898-2.765-2.003-1.455c-3.357-2.419-6.788-4.724-10.224-7.03l-1.888-1.3c-4.132-3.064-4.132-3.064-8.924-4.137-2.472 1.313-4.645 2.666-6.937 4.25l-4.54 3.035-2.598 1.755a991 991 0 0 1-10.073 6.644l-1.904 1.243-3.85 2.513q-4.592 3-9.18 6.01c-.58.378-1.159.757-1.755 1.148a626 626 0 0 0-8.649 5.764l-3.276 2.22-2.916 1.995C128 147 128 147 126 147c-2-3-2-3-1.93-4.968 1.326-2.897 3.122-3.843 5.801-5.544l3.145-2.023 3.422-2.153q1.745-1.115 3.488-2.234a2457 2457 0 0 1 7.316-4.673 1023 1023 0 0 0 11.2-7.268l5.334-3.504q4.125-2.71 8.255-5.414l2.768-1.815C177 106 177 106 179 105c-1.29-3.872-3.633-5.296-6.816-7.598l-1.817-1.317a425 425 0 0 0-5.93-4.147l-2.041-1.411c-9.776-6.637-17.97-10.784-30.152-10.129-8.964.393-14.995-3.672-22.244-8.398l-4.455-2.845a848 848 0 0 1-11.872-7.793 1424 1424 0 0 0-7.384-4.87q-2.356-1.564-4.71-3.133l-2.223-1.452-2.046-1.377-1.797-1.192C73.719 47.752 72.94 46.183 72 44h-2c-.731-7.932 1.025-11.714 5.813-17.937l1.658-2.284C81.85 17.85 85.163 14.744 93 16"/><path fill="#364D63" d="M300 53c3 0 3 0 4.543 1.469l1.644 2.031c2.42 2.901 4.886 5.587 7.625 8.188 7.478 7.405 13.542 16.108 19.313 24.874l1.183 1.769C336.413 94.608 337 95.974 337 100h2c3.226 7.496 6.12 15.048 8.805 22.754a83 83 0 0 0 3.382 7.871c1.934 4.225 2.713 8.36 3.343 12.95q.458 3.345.978 6.683c1.496 10.056 1.935 19.957 1.93 30.117v2.514c-.074 26.732-6.5 51.908-18.407 75.88-1.17 2.124-1.17 2.124-1.031 4.231l1.573.687q3.559 1.559 7.115 3.125l2.474 1.08c4.114 1.816 8.049 3.661 11.838 6.108-3.465 1.155-4.372.809-7.77-.258l-2.906-.889-3.137-.978c-27.818-8.34-56.233-12.772-85.067-15.887l-2.737-.312-2.363-.253C255 255 255 255 252 253c8.214-5.476 15.467-4.123 24.836-2.504l2.786.464q4.378.731 8.753 1.477 4.365.739 8.732 1.468 2.705.452 5.41.914c5.81.976 11.613 1.664 17.483 2.181 5.69-10.729 10.229-21.457 14-33h2l-.187-3.187c-.018-5.018 1.194-9.632 2.433-14.47 8.134-36.073-1.886-78.334-20.961-109.327C309.085 84.15 299.029 73.481 288 63l2-3c19.396 8.859 35.84 37.536 43.082 56.598.932 2.585.932 2.585 2.606 5.59 1.502 3.219 2.153 6.28 2.785 9.761.48 2.34.48 2.34 2.527 5.051 4.011 13.561 4.63 26.962 4.521 41.027-.021 3.3 0 6.597.026 9.897.014 11.498-.702 21.177-4.547 32.076a122 122 0 0 0-1 5.25c-.811 4.41-2.305 8.306-4.059 12.422-.842 2.084-1.46 4.089-2.003 6.266C333 247 333 247 331.609 248.368c-2.032 2.062-3.045 4.215-4.296 6.82l-1.325 2.73L325 260h5l.75-1.937a221 221 0 0 1 3.125-7.25c12.338-27.772 15.74-54.031 15.363-84.211l-.023-2.282c.24-3.451.24-3.451-1.215-6.32-.277-2.06-.55-4.12-.798-6.183-1.99-16.003-7.068-30.563-14.624-44.774C331 104 331 104 329.484 100.43c-6.126-14.156-17.183-26.871-28.508-37.168-1.617-1.52-1.617-1.52-3.976-4.262.022-3.113.788-3.788 3-6"/><path fill="#374D63" d="M73.75 54.063A68 68 0 0 1 78 56c0 3 0 3-1.363 4.402l-1.95 1.535C58.155 75.906 44.877 95.878 37 116l-1.172 2.887C31.711 129.624 29.248 140.742 27 152l-.577 2.795c-1.446 7.649-1.764 15.192-1.739 22.958.003 2.047-.02 4.093-.045 6.14-.038 8.18.806 15.708 2.624 23.687.765 3.549 1.25 7.066 1.674 10.67.865 6.353 2.683 11.827 5.063 17.75q.94 2.75 1.875 5.5c1.813 5.047 4.242 9.57 6.953 14.188C44 258 44 258 44 261l6-1-1.504-2.324C42.16 247.324 38.503 236.576 35 225l-.805-2.602c-4.365-14.23-5.484-27.85-5.507-42.648l-.011-2.19C28.584 142.899 39.98 110.44 61 83l2.215-2.898C68.95 72.86 75.379 66.419 82 60l4 2c-2.906 3.468-5.835 6.885-9.008 10.113C59.086 90.387 45.766 113.015 40 138h-2l.063 3.938A59 59 0 0 1 38 146l-1 1c-1.821 11.963-2.477 23.974-2.5 36.063l-.007 2.415C34.51 199.974 36.44 213.182 41 227l.875 2.709C45.04 239.335 48.783 248.297 54 257c6.18-.49 12.225-1.333 18.324-2.41l2.286-.4c3.144-.553 6.287-1.108 9.427-1.681 28.329-5.149 28.329-5.149 37.963.491v2l-1.69.152c-20.555 1.862-40.772 4.712-61.06 8.536l-2.02.38c-10.535 2.004-20.778 4.572-31.006 7.835l-2.77.874c-1.19.39-1.19.39-2.402.79C19 274 19 274 16 273a1622 1622 0 0 1 7.688-3.937c.72-.374 1.442-.747 2.185-1.131C29.565 266.06 32.837 264.517 37 264c-1.568-4.458-3.28-8.668-5.437-12.875-4.13-8.148-6.957-15.996-8.852-24.95q-.723-3.222-1.656-6.392c-3.754-13.457-4.588-26.693-4.492-40.595 0-.873.002-1.746.004-2.645.097-33.207.097-33.207 5.433-38.543.277-1.579.52-3.164.75-4.75C24.993 120.623 31.07 109.243 37 98l.965-1.85C45.107 82.59 54.569 71.167 65 60l1.715-1.98c3.628-4.035 3.628-4.035 7.035-3.958"/><path fill="#635651" d="M289 16c3.853 2.658 6.47 5.649 9.188 9.438l2.042 2.808c3.164 4.924 4.494 8.861 3.77 14.754-3.25 4.498-6.748 7.532-11.437 10.5l-1.917 1.245A1066 1066 0 0 1 284 59l-5.523 3.547A1875 1875 0 0 1 262 73l-2.646 1.686c-8.167 5.091-14.753 6.628-24.291 6.439l-2.65-.027A909 909 0 0 1 226 81c4.087-4.387 8.607-7.743 13.5-11.187 5.55-3.955 11.06-7.94 16.438-12.126C261.54 53.334 267.235 49.138 273 45l-1.703 1.11c-7.074 4.556-14.272 8.878-21.506 13.175a400 400 0 0 0-19.586 12.501c-1.698 1.13-3.447 2.181-5.205 3.214l-2-1a376 376 0 0 1 4-12l.734-2.227c3.83-9.493 15.092-15.763 23.149-21.507 3.188-2.317 6.316-4.7 9.439-7.104 2.908-2.238 5.828-4.46 8.748-6.683a449 449 0 0 0 4.961-3.87C279.23 16.663 282.426 14.774 289 16"/><path fill="#5BADC1" d="m237.75 201.75 2.883-.062c6.375-.035 11.482.885 17.367 3.312l1.973.79c1.92.79 3.818 1.617 5.714 2.46l2.059.905c5.826 2.591 11.51 5.428 17.168 8.365 6.259 3.002 11.616 3.843 18.461 4.105l2.52.117c2.034.094 4.07.177 6.105.258-4.38 4.38-11.823 3.402-17.703 3.462-8.592-.155-15.549-2.995-23.297-6.462a573 573 0 0 0-5.625-2.312l-2.164-.926c-13.14-4.527-31.564-2.976-43.883 2.937-6.152 3.124-11.967 6.692-17.766 10.426-4.826 3.025-9.627 5.314-14.937 7.313l-1.982.748c-16.297 5.826-32.262 3.63-47.643-3.186a333 333 0 0 0-6.187-2.312l-2.481-.926c-14.39-4.7-30.163-1.695-44.332 2.238-1.663.352-3.328.694-5 1 2.722-3.455 6.502-4.61 10.5-6.062l2.186-.798c13.822-4.904 27.55-5.394 41.876-2.64 27.16 5.124 47.786-1.653 71.356-14.356 10.89-5.795 20.553-8.329 32.832-8.394"/><path fill="#344B5D" d="m16 341 1.724.553c7.077 2.203 14.214 3.854 21.464 5.385l3.717.788c11.32 2.37 22.669 4.478 34.095 6.274l2.594.41c11.964 1.846 23.98 3.101 36.031 4.215l2.021.19c4.782.443 9.565.833 14.354 1.185l2.033.154c17.277 1.249 34.624.999 51.934.976q6.646-.006 13.294.004 5.17.005 10.34 0 2.453 0 4.904.002 3.418.003 6.836-.007l3.908-.002c3.99-.135 7.796-.6 11.751-1.127 1.49-.104 2.98-.188 4.473-.237l2.352-.092 2.46-.093c10.125-.45 20.106-1.521 30.153-2.828l2.598-.332c22.921-2.934 45.557-6.695 67.964-12.418q1.976-.492 3.953-.98 4.027-.997 8.047-2.02c-10.35 11.405-31.603 14.19-46 17l-3.058.604c-16.009 3.146-31.943 5.725-48.192 7.209l-3.425.317c-23.385 2.085-46.764 2.356-70.229 2.368q-4.196.004-8.393.015c-33.9.056-67.205-2.112-100.703-7.513l-3.12-.488C54.592 357.16 35.626 352.012 16 343z"/><path fill="#625550" d="M121 142v2c-1.57 1.325-1.57 1.325-3.77 2.828l-2.428 1.665-2.615 1.757-2.635 1.794c-4.473 3.01-8.928 5.822-13.74 8.268-5.099 2.63-9.369 6.061-12.812 10.688v3h-2c-.91 4.39-.833 8-.375 12.438.042 4.104.001 5.857-2.754 8.96-4.73 3.224-9.951 5.985-15.812 5.473-4.616-1.953-6.674-6.708-9.059-10.871l-1.766-2.645c-2.45-3.725-4.097-6.722-5.047-11.105 1.363-5.45 5.97-8.073 10.519-10.978 6.606-3.94 13.338-7.669 20.052-11.423a234 234 0 0 0 8.398-5.048c11.916-7.24 22.05-8.075 35.844-6.801"/><path fill="#695B55" d="M157 79a149 149 0 0 1 5.598 3.59l3.177 2.127 3.287 2.22 3.3 2.21c8.208 5.51 8.208 5.51 10.826 7.594 1.782 1.514 1.782 1.514 4.273 1.118 2.718-.92 4.767-2.032 7.164-3.609l2.84-1.863C205.013 87.312 212.512 82.163 220 77l4 2v4c-1.585 1.536-1.585 1.536-3.805 2.988l-2.446 1.632-2.624 1.692-5.23 3.47-2.557 1.675c-2.88 1.9-5.707 3.865-8.525 5.856l-2.293 1.613L195 103c4.472 4.982 9.787 8.368 15.375 12 13.764 9.022 13.764 9.022 17.625 12v2c-4.881 1.056-6.971 1.506-11.535-.738a124 124 0 0 1-3.528-2.575l-3.898-2.765-2.003-1.455c-3.357-2.419-6.788-4.724-10.224-7.03l-1.888-1.3c-4.132-3.064-4.132-3.064-8.924-4.137-2.472 1.313-4.645 2.666-6.937 4.25l-4.54 3.035-2.598 1.755a991 991 0 0 1-10.073 6.644l-1.904 1.243-3.85 2.513q-4.592 3-9.18 6.01c-.58.378-1.159.757-1.755 1.148a626 626 0 0 0-8.649 5.764l-3.276 2.22-2.916 1.995C128 147 128 147 126 147c-2-3-2-3-1.93-4.968 1.326-2.897 3.122-3.843 5.801-5.544l3.145-2.023 3.422-2.153q1.745-1.115 3.488-2.234a2457 2457 0 0 1 7.316-4.673 1023 1023 0 0 0 11.2-7.268l1.806-1.186 3.528-2.318q4.125-2.71 8.255-5.414l2.768-1.815C177 106 177 106 179 105c-1.392-4.175-4.355-5.562-7.879-7.887l-2.08-1.4c-2.197-1.474-4.4-2.937-6.603-4.4q-2.235-1.497-4.467-2.995Q152.492 84.648 147 81c2.438-4.876 5.697-4.02 10-2"/><path fill="#5CB1C5" d="M292 238c-2.843.948-4.392 1.086-7.316.992-13.155-.48-13.155-.48-25.684 3.008l-2.66 1.113c-6.441 2.94-12.06 6.7-17.777 10.825-20.392 14.651-40.792 21.378-66.078 17.696-7.175-1.353-13.829-3.675-20.485-6.634 3.332-1.02 6.261-1.063 9.734-.957 13.082.283 24.856.41 37.266-4.043l3.547-1.25c8.69-3.399 16.025-8.226 23.639-13.504C245.24 232.157 270.821 223.376 292 238"/><path fill="#645753" d="M286 148c5.66 2.115 10.72 5.155 15.936 8.175q2.59 1.495 5.187 2.975c5.294 3.055 10.54 6.173 15.647 9.534l2.413 1.583c2.257 2.152 2.537 3.542 2.817 6.608-.615 5.798-3.456 9.661-7 14.125q-1.658 2.25-3.312 4.5c-2.517 3.33-2.517 3.33-3.688 4.5a64 64 0 0 1-4.437.125l-2.434.008C305 200 305 200 303 199l-.812-3.375c-.871-3.638-.871-3.638-3.25-5.562-4.028-1.457-7.701-1.312-11.938-1.063.602-2.694 1.324-4.66 2.563-7.187 2.821-7.483 2.929-17.498.312-25.067-1.314-2.653-1.314-2.653-2.781-4.96C286 150 286 150 286 148"/><path fill="#334A61" d="m258 23 2 2c-2.125 2.063-2.125 2.063-5 4-4.783-.357-8.97-2.039-13.375-3.812-17.936-6.945-36.261-9.634-55.437-9.625l-2.303-.003c-19.725.05-37.807 3.584-56.12 10.987-5.68 2.247-5.68 2.247-8.765 2.453-2.812-2.437-2.812-2.437-5-5 11.446-6.198 23.092-9.97 35.75-12.75l2.903-.639C185.643 3.671 228.196 5.94 258 23"/><path fill="#415970" d="M290 60c19.396 8.859 35.84 37.536 43.082 56.598.932 2.585.932 2.585 2.606 5.59 1.502 3.219 2.153 6.28 2.785 9.761.48 2.34.48 2.34 2.527 5.051 4.011 13.561 4.63 26.962 4.521 41.027-.021 3.3 0 6.597.026 9.897.014 11.498-.702 21.177-4.547 32.076a122 122 0 0 0-1 5.25c-.952 5.211-2.88 9.914-5 14.75-1-2-1-2-.223-4.82l1.16-3.305 1.153-3.32L338 226c-3.76 2.507-4.392 4.865-6 9-1-2-1-2-.441-4.164l.878-2.461.872-2.477L334 224h2l-.187-3.187c-.018-5.018 1.194-9.632 2.433-14.47 8.134-36.073-1.886-78.334-20.961-109.327C309.085 84.15 299.029 73.481 288 63z"/><path fill="#60B0C2" d="M136.996 241.367 141 243l2.511 1.065c6.837 2.732 12.835 3.637 20.177 3.56l3.149-.01c9.388-.237 16.745-2.719 25.163-6.615 2.422-.691 2.422-.691 4-1-7.425 9.77-17.957 15.203-29.95 17.586-14.148 1.92-25.24-1.348-37.55-8.086-14.63-7.993-27.919-10.207-44.5-7.5 14.992-12.487 36.793-7.427 52.996-.633"/><path fill="#425971" d="m82 60 4 2c-2.906 3.468-5.835 6.885-9.008 10.113C59.086 90.387 45.766 113.015 40 138h-2l.063 3.938A59 59 0 0 1 38 146l-1 1c-1.753 11.363-2.373 22.746-2.37 34.232a492 492 0 0 1-.08 7c-.061 8.816.755 16.797 3.134 25.31 1.684 6.092 1.684 6.092.316 9.458l-1-1-2 3c-5.264-14.859-6.288-29.63-6.312-45.25l-.011-2.19C28.584 142.899 39.98 110.44 61 83l2.215-2.898C68.95 72.86 75.379 66.419 82 60"/><path fill="#3F5467" d="M170 291h15c5 5 5 5 5.568 8.413l-.08 3.857-.021 2.063c-.028 2.161-.09 4.32-.155 6.48q-.037 2.204-.068 4.412A805 805 0 0 1 190 327h-2l-1 3c-4 2-4 2-17 2z"/><path fill="#384C5F" d="M88 291c14 0 14 0 19 4 .631 3.328.631 3.328.629 7.25l.007 2.106a269 269 0 0 1-.04 4.398c-.033 2.24-.02 4.475 0 6.715q-.01 2.14-.03 4.281l-.033 3.922c-.617 3.851-1.449 5.021-4.533 7.328-3 1-3 1-15 1z"/><path fill="#3A4F64" d="M311 291c13 0 13 0 18 3 1.856 1.856 1.174 4.828 1.188 7.313l.042 3.488c-.217 3.023-.647 4.665-2.23 7.199l2 2c.227 1.88.227 1.88.195 4.133l-.02 2.441-.05 2.551-.027 2.574c-.024 2.1-.06 4.2-.098 6.301h-6v-16l-6-1v17h-7z"/><path fill="#394F63" d="M5 291c14 0 14 0 19 4 .559 3.094.559 3.094.438 6.5l-.067 3.406c-.346 2.885-.874 4.641-2.371 7.094l2 2c.145 2.91.186 5.72.125 8.625l-.027 2.43c-.024 1.982-.06 3.963-.098 5.945h-6l-1-14-5-2v17H5z"/><path fill="#485D6F" d="M150 291h10l.586 3.184c1.222 6.6 2.452 13.187 3.941 19.734 2.78 12.245 2.78 12.245 2.473 18.082q-3.5.062-7 0c-1-1-1-1-1.062-4.562L159 324h-8l.063 3.438C151 331 151 331 150 332c-2 .04-4 .043-6 0 1.556-13.738 3.763-27.358 6-41"/><path fill="#354B5F" d="M240 291h8l5 18 1-18h6v41h-7l-7-28-1 27h-5z"/><path fill="#3B4F62" d="M53 291c13 0 13 0 18 3 2.05 2.05 1.321 6.013 1.375 8.813l.113 2.197c.062 3.72-.17 5.606-2.574 8.502C67 315 67 315 60 315v17h-7z"/><path fill="#34495D" d="M34 291h9c1.742 8.021 3.214 15.792 3.75 23.992.447 5.377 1.366 10.688 2.25 16.008h-6l-1-7h-8l-1 8h-6c.846-8.02 1.678-15.67 4.27-23.34C32.845 302.924 33.33 296.9 34 291"/><path fill="#31485E" d="M183.481 19.74c2.515.01 5.028 0 7.542-.013 8.855-.009 17.288.372 25.977 2.273l2.158.442C229.481 24.65 239.214 28.096 249 32l-1 3c-5.156-.31-9.255-1.413-14.062-3.312C201.357 19.878 162.844 22.124 131 35l-3 1-3-2v-2c6.457-2.889 13.119-5.062 19.875-7.125l2.464-.768c12.062-3.619 23.633-4.431 36.142-4.368"/><path fill="#374D61" d="M287 291h6l1 34h5l1-34h6v36h-2l-.875 1.938C302 331 302 331 300 332c-7.095.698-7.095.698-10.605-2.01-3.043-3.799-3.041-6.698-2.883-11.353l.021-2.4c.028-2.518.09-5.033.154-7.55q.038-2.567.069-5.134c.055-4.185.141-8.369.244-12.553"/><path fill="#3B4E61" d="M365.188 289.625c5.112.503 6.45 1.52 9.812 5.375.375 3.813.375 3.813 0 7h-6v-5h-5c-.387 3.79-.368 5.49 1.898 8.633l2.477 2.492c4.666 4.755 6.905 7.611 7.063 14.375-.09 3.751-.14 5.088-2.375 8.188-4.011 1.718-7.76 2.207-12.063 1.312-1.773-1.402-1.773-1.402-3-3v-2h-2v-8h7l1 6h4c.545-2.845.755-4.253 0-7-2.103-2.501-4.404-4.648-6.797-6.871-3.726-3.6-4.992-6.626-5.703-11.692.631-4.341 2.183-5.686 5.5-8.437 1-1 1-1 4.188-1.375"/><path fill="#3A4F62" d="M194 291h6l4 28 .875-7.812c.78-6.786 1.765-13.49 3.125-20.188h6c-1.537 13.77-3.15 27.433-6 41h-9q-1.082-6.587-2.136-13.177-.36-2.237-.728-4.472c-1.283-7.812-2.494-15.404-2.136-23.351"/><path fill="#3A4E61" d="M124 290c2.813 1.563 2.813 1.563 5 4 .813 3.75.813 3.75 1 7h-5l-2-4h-4c-.39 3.81-.34 5.516 1.898 8.703l2.477 2.547 2.46 2.578q2.082 2.088 4.165 4.172c.775 5.521.951 10.404-1.937 15.25-4.112 2.35-7.436 2.812-12.063 1.75-2.562-2.062-2.562-2.062-4-5-.25-3.812-.25-3.812 0-7h6l1 5h4c.462-2.77.668-4.322 0-7-1.82-2.257-3.825-4.132-5.953-6.098-3.803-3.534-6.228-6.735-6.61-11.964.671-4.697 1.891-6.053 5.563-8.938 2.853-1.427 4.835-1.31 8-1"/><path fill="#3D5366" d="M218 291h17v5h-11v12h9v6h-8v11h11v7h-18z"/><path fill="#5DAFC3" d="M265 223v1l-3.262.078c-17.434.594-28.96 5.226-42.488 16.14-3.571 2.828-5.708 3.066-10.25 2.782-2-2-2-2-2.375-4.312.61-4.372 3.352-6.867 6.715-9.567 16.008-10.375 33.613-12.066 51.66-6.121"/><path fill="#374B60" d="M335 291h17v5l-10 1-1 11h9v5l-8 1-1 12h12v6h-18z"/><path fill="#405567" d="M263 291h20v5h-6v36h-7v-35h-7z"/><path fill="#465B6D" d="M76 291h7v41h-7z"/><path fill="#3C5670" d="m82 60 4 2c-2.906 3.468-5.835 6.885-9.008 10.113-9.363 9.565-17.12 20.12-23.629 31.832-1.924 2.9-4.074 3.251-7.363 4.055 1.495-5.58 4.237-9.837 7.438-14.562l1.618-2.403C62.905 79.566 72.018 69.635 82 60"/><path fill="#374E64" d="M194.617 19.734C213.693 19.826 231.427 24.99 249 32l-1 3c-5.156-.31-9.255-1.413-14.062-3.312C216.338 25.22 197.58 24.286 179 24v-1l2.336-.148 3.039-.227c.998-.07 1.995-.14 3.023-.21 3.288-.524 3.895-2.343 7.22-2.68"/><path fill="#586A7D" d="M35 152h1c.126 7.45.126 7.45-.491 10.14-.644 3.618-.71 7.182-.747 10.844l-.025 2.345q-.02 2.462-.032 4.922a440 440 0 0 1-.062 4.933c-.178 9.869.355 18.856 3.038 28.4 1.685 6.048 1.685 6.048.319 9.416l-1-1-2 3c-7.17-20.237-6.355-40.87-6-62h1l1 19 .621-5.293.817-6.894.408-3.487.4-3.369.365-3.094c.36-2.652.832-5.247 1.389-7.863"/><path fill="#5EB2C8" d="M270 99c2 2 2 2 2.5 4.813-.57 3.637-1.6 4.743-4.516 6.902-3.14 2.034-6.356 3.924-9.617 5.758-2.478 1.598-4.36 3.377-6.367 5.527-.376-6.89.104-13.27 4.477-18.902 4.358-4.23 7.557-4.907 13.523-4.098"/><path fill="#EBEAEB" d="M99 43c3.712 1.364 6.867 3.055 10.184 5.203 1 .645 2 1.29 3.031 1.953l3.222 2.094 5.008 3.23 3.42 2.208c5.88 3.8 11.788 7.558 17.698 11.312L151 75l1-3v4l2 1c-1.687 1.625-1.687 1.625-4 3-9.055-2.815-16.764-9.475-23.906-15.469-4.942-4.043-10.077-7.825-15.2-11.636l-1.911-1.424a917 917 0 0 0-4.251-3.134l-2.22-1.638-2.037-1.493L99 44z"/><path fill="#EDECEC" d="m272 44 2 1a1138 1138 0 0 1-18.437 14.125l-2.586 1.944a633 633 0 0 1-13.243 9.689l-2.51 1.784a656 656 0 0 1-4.751 3.333l-2.141 1.516-1.884 1.313c-1.738 1.34-1.738 1.34-2.448 4.296-2.536-1.268-2.85-2.468-4-5l-1-2c2.265-2.265 4.043-2.829 7-4 1.712-.98 3.402-2.002 5.07-3.055l2.941-1.847 3.114-1.973 3.201-2.016q3.254-2.05 6.504-4.105a3464 3464 0 0 1 8.94-5.629l5.168-3.25 2.436-1.53 2.216-1.4 1.933-1.218c1.465-.898 1.465-.898 2.477-1.977"/><path fill="#E5E9EB" d="M94 296h5c2 2 2 2 2.227 4.706-.01 1.12-.02 2.24-.032 3.396l-.02 3.671-.05 3.852-.027 3.875q-.036 4.75-.098 9.5l-7 1z"/><path fill="#DFA245" d="m150.875 168.938 2.375.013q2.875.02 5.75.049c-4.637 5.787-14.674 7.454-21.738 8.613-9.219.867-9.219.867-13.262-1.613l1-3c2.293-.914 2.293-.914 5.188-1.625l2.855-.727c6.056-1.328 11.655-1.779 17.832-1.71"/><path fill="#41566D" d="m37 220 1 3h2l.531 1.721C45.686 243.211 45.686 243.211 56 259c-3.037.248-4.306.284-7-1-5.05-5.964-7.787-13.55-10.437-20.812l-.786-2.135c-1.533-4.47-2.12-8.27-1.777-13.053z"/><path fill="#F2F4F6" d="M177 297h5c1.803 1.803 1.13 4.54 1.133 6.969l.004 3.668-.012 3.863.012 3.863-.004 3.668-.004 3.393C183 325 183 325 182 326h-5z"/><path fill="#F9F5EC" d="M116.75 196.688c3.103.055 4.253.314 7.063 1.875 3.512 3.914 5.088 7.623 5.374 12.875L129 214a335 335 0 0 1-9.562-4.937l-2.88-1.528c-2.268-1.36-3.94-2.454-5.558-4.535.47-4.943.663-5.889 5.75-6.312"/><path fill="#5FB0C3" d="M86.25 207.688c6.88.573 12.095 4.368 16.75 9.312v2l-2.02-.473c-4.217-.746-8.44-.877-12.716-1.045-5.048-.266-5.048-.266-7.264-2.482-.25-2.5-.25-2.5 0-5 2-2 2-2 5.25-2.312"/><path fill="#657889" d="M344 198h1c.536 6.699-1.042 12.144-2.992 18.54a79 79 0 0 0-2.008 8.71c-.952 5.211-2.88 9.914-5 14.75-1-2-1-2-.223-4.82l1.16-3.305 1.153-3.32L338 226c-3.76 2.507-4.392 4.865-6 9-1-2-1-2-.441-4.164l.878-2.461.872-2.477L334 224h2l-.187-3.187c-.034-6.11 1.681-11.932 3.187-17.813h1v8h2z"/><path fill="#6BB7CA" d="M297 195v6c-4.26 2.403-8.2 3.635-12.95 4.57-2.235.428-2.235.428-5.05 1.43.434-4.923 2.644-7.488 6-11 3.76-2.983 7.539-1.744 12-1"/><path fill="#64B6CD" d="m280 117 3 2c.313 2.5.313 2.5 0 5-2 2-2 2-5 2.188-3-.188-3-.188-5-1.188-1.537-.225-3.08-.408-4.625-.562l-2.477-.254L264 124c3.23-7.009 8.758-8.044 16-7"/><path fill="#F7F6F0" d="m138.965 165.867 3.424-.004 3.548.012 3.538-.012 3.427.004 3.11.004c3.067.132 5.973.563 8.988 1.129-2.159 3.238-3.548 4.314-7 6-2.812.188-2.812.188-5 0 3-2 3-2 5-3-9.573-.219-18.577.001-28 2v-2l4-1-6-1v-1c3.715-.859 7.155-1.129 10.965-1.133"/><path fill="#3A5166" d="m155 24-4 2 3 2-2.965.734q-1.988.506-3.972 1.016l-2.076.534c-3.917 1.045-7.47 2.273-11.112 4.091-3.513 1.714-3.513 1.714-6.937.875L125 34v-2c6.019-2.59 12.144-4.796 18.375-6.812l2.09-.7c6.088-1.928 6.088-1.928 9.535-.488"/><path fill="#536A7D" d="M336 226h2a946 946 0 0 1-2 9l-.695 3.164-.743 3.211-.683 3.023c-.918 2.717-1.713 3.796-3.879 5.602l-2 2h-4a96.4 96.4 0 0 1 7-17q1.096-2.217 2.188-4.437C335 227 335 227 336 226"/><path fill="#41566B" d="M194.617 19.734c7.653.037 14.88.752 22.383 2.266l-2 4-36-2v-1l2.336-.148 3.039-.227c.998-.07 1.995-.14 3.023-.21 3.288-.524 3.895-2.343 7.22-2.68"/><path fill="#D6DADF" d="M60 296q3.012.43 6 1v12l-7 1q-.04-3.22-.062-6.437l-.036-3.622C59 297 59 297 60 296"/><path fill="#778795" d="M339 135c3.103 3.103 3.266 6.914 4.125 11.125.182.83.364 1.66.55 2.516 1.09 5.228 1.51 10.02 1.325 15.359h-1l-2-14h-2v11h-1l-.367-2.598c-1.008-7.32-1.008-7.32-2.82-14.464-.8-2.888-.91-4.196.187-6.938l.875 2.438c.858 2.695.858 2.695 3.125 3.562z"/><path fill="#C4C9CE" d="M107 296c2.136 3.204 2.242 3.996 2.195 7.668l-.02 2.705-.05 2.815-.027 2.85c-.024 2.32-.06 4.641-.098 6.962h10v6h-1v-5h-6v6l-1-2-4 2z"/><path fill="#D4DADF" d="M317 296h5c2 2 2 2 2.266 4.094l-.016 2.406.016 2.406C324 307 324 307 322 309h-5z"/><path fill="#D7DCE1" d="M11 296h5c2 2 2 2 2.266 4.094l-.016 2.406.016 2.406C18 307 18 307 16 309h-5z"/><path fill="#445A70" d="M44 241h2l1.68 3.43 2.195 4.445 1.105 2.262 1.075 2.168.984 2c.964 1.875.964 1.875 2.961 3.695-3.069.25-4.295.34-7-1-7.3-9.211-7.3-9.211-6.75-14.324C43 242 43 242 44 241"/><path fill="#DBD8DA" d="m272 44 2 1c-2.992 2.344-5.996 4.672-9 7l-2.062 1.607a2615 2615 0 0 1-6.875 5.33l-2.297 1.794-2.168 1.671c-.645.5-1.29 1-1.953 1.516C248 65 248 65 246 65c.297-3.165.53-4.593 2.978-6.713l2.573-1.514 2.806-1.687c.976-.565 1.95-1.13 2.956-1.711q2.87-1.706 5.738-3.414l2.583-1.506c2.231-1.372 4.3-2.848 6.366-4.455"/><path fill="#243E56" d="M343 185h1q.08 4.25.125 8.5l.05 2.398c.045 5.382-.67 9.932-2.175 15.102h-2c-.376-17.033-.376-17.033 2-25z"/><path fill="#27405B" d="M33 155h1c-.779 19.968-.779 19.968-3 29h-1c-.058-3.542-.094-7.083-.125-10.625l-.05-3.027c-.035-5.168.018-9.54 2.175-14.348z"/><path fill="#E3E6E9" d="M78 56c1.125 3.75 1.125 3.75 0 6l2 1-7 6v-2h-3l-.75 1.75C67.833 71.3 66.124 73.018 64 75l-2-1c10.674-11.977 10.674-11.977 14-15h2z"/><path fill="#6BB7CB" d="m289 220 1.918.465c4.122.716 8.22.897 12.394 1.097l2.534.131q3.076.158 6.154.307c-3.289 3.289-6.967 3.054-11.426 3.098a787 787 0 0 1-4.887-.036l-2.533-.013q-3.077-.02-6.154-.049l4-1v-2h-2z"/><path fill="#263F56" d="M340 150h2c2.26 8.05 2.197 15.703 2 24l-2-1c-2.04-7.532-2.275-15.247-2-23"/><path fill="#D1D6DB" d="M37 301h2c.993 5.707 1.105 11.214 1 17h-5c.538-5.69 1.14-11.349 2-17"/><path fill="#768794" d="M344 198h1c.345 6.334-.707 11.103-3 17h-4l-1 5c-1.447-3.872-.544-6.823.438-10.75l.87-3.547L339 203h1v8h2z"/><path fill="#2A455E" d="M336 226h2c-1.029 5.446-2.246 10.118-5 15l-2-1c-.634-5.076 1.52-8.738 4-13z"/><path fill="#2B445C" d="M335 127c4.164 4.542 5 10.022 5 16l-3-1c-.984-2.11-.984-2.11-1.75-4.75l-.797-2.61c-.492-2.865-.196-4.85.547-7.64"/><path fill="#687988" d="M37 299h3v7l2 1-1 12h-5l4-1-1-17h-2zm7 1h1l1 10-1-3-3-1z"/><path fill="#F4EFE3" d="m159.688 166.438 3.011.308L165 167c-2.159 3.238-3.548 4.314-7 6-2.812.188-2.812.188-5 0 3-2 3-2 5-3l-8-1c2.014-4.028 5.816-2.972 9.688-2.562"/><path fill="#61707E" d="M365.563 289.938 369 290v1l-2.75.75c-3.559 1.369-5.085 2.122-7.25 5.25-.615 2.993-.87 5.95-1 9-2.5-3.75-2.536-5.559-2-10 2.438-2.875 2.438-2.875 5-5 1-1 1-1 4.563-1.062"/><path fill="#C9E7ED" d="M253 108c1.125 3.75 1.125 3.75 0 6-.04 2.333-.043 4.667 0 7l1.688-2.375c2.389-2.712 3.913-3.586 7.312-4.625l-2.875 3.375-1.617 1.898A76 76 0 0 1 254 123h-3c-.369-10.558-.369-10.558 2-15"/><path fill="#F2F3F4" d="M155 303h1l1 15h-4q.21-3.47.438-6.937c.08-1.288.162-2.576.246-3.903C154 304 154 304 155 303"/><path fill="#5B6E83" d="M36 212c2.398 2.398 2.343 3.333 2.625 6.625l.227 2.477L39 223l-2-1-2 3c-2.092-4.43-2.092-4.43-1.625-7.312L34 216l1 1z"/><path fill="#E3AC57" d="M142 169h17c-3.106 3.106-4.892 3.813-9 5v-4h-8z"/><path fill="#4C687A" d="M16 341c12.194 3.552 12.194 3.552 15 5l1 3c-5.467-1.748-10.758-3.658-16-6z"/><path fill="#7EC4CF" d="M94.188 227.938 96 229c-2.95 1.568-5.871 2.7-9.062 3.688-.858.271-1.715.543-2.598.824C82 234 82 234 79 233q2.404-1.222 4.813-2.437l2.707-1.372c4.995-2.399 4.995-2.399 7.668-1.254"/><path fill="#4B6579" d="m27 267 2 1-1 1 2 2q-2.653.795-5.312 1.563l-2.989.878C19 274 19 274 16 273q2.68-1.544 5.375-3.062l3.023-1.723z"/><path fill="#F3ECDE" d="m241 172 2 1-12 12-3-1z"/><path fill="#5C7083" d="m333 122 1 2 3 1-1 4-1-1v8c-2.995-4.492-3.197-7.676-3-13z"/><path fill="#BCB8B9" d="M99 43c3.96 1.433 7.287 3.331 10.813 5.625l2.957 1.914L115 52l-3 2q-3.254-2.463-6.5-4.937c-.62-.47-1.24-.938-1.879-1.42A238 238 0 0 1 99 44z"/><path fill="#6F8395" d="M359 342c-8.442 5.532-8.442 5.532-13.062 4.813L343 346c2.97-1.582 5.909-2.703 9.125-3.687l2.633-.825C357 341 357 341 359 342"/><path fill="#364D65" d="M41 234c3 2 3 2 3.688 4.625L45 241l-3 2c-2-2-2-2-2.187-5.062C40 235 40 235 41 234"/><path fill="#79C0CE" d="m218 226 2 1-2.336 2.047-3.039 2.703-1.54 1.344c-2.704 2.42-4.761 4.493-6.085 7.906-.37-3.23-.183-4.707 1.563-7.5 2.922-2.998 5.965-5.163 9.437-7.5"/><path fill="#D1D7DC" d="M253 291h1v19l-2-1a109 109 0 0 1-1-7h2z"/><path fill="#35516A" d="M340 346h8c-2.66 3.442-5.903 3.995-10 5z"/><path fill="#34506D" d="m83 61 3 1-6 7-2-1c1.293-2.884 2.66-4.872 5-7"/><path fill="#334B61" d="M340 150h2c1.074 5.957 1.074 5.957 1 8l-3 3z"/><path fill="#697D8C" d="M351 270c3.971.322 6.707 1.836 10 4-3.479 1.16-4.342.775-7.687-.437l-2.45-.872L349 272z"/><path fill="#F5EEDD" d="M266 166a125 125 0 0 1 6 4v2l-12-2v-1h6z"/><path fill="#37526B" d="m35 266-2 4h-6c.813-1.937.813-1.937 2-4 3-1 3-1 6 0"/><path fill="#D3D8DC" d="m70 65 1 2-7 8-2-1z"/><path fill="#E7B567" d="M129 209h1c.25 5.625.25 5.625-2 9-3.125.188-3.125.188-6 0l4-1 1-4 2 1z"/><path fill="#4A6374" d="M341 193h1v5h2v5l-2-3-2 3c-.125-7.75-.125-7.75 1-10"/><path fill="#3C566A" d="m31 346 9 1c-2.918 1.945-4.625 2.453-8 3z"/><path fill="#7A706C" d="m238 48 2 1a517 517 0 0 1-3.375 3.5l-1.898 1.969C233 56 233 56 231 56c1.491-3.795 3.757-5.61 7-8"/><path fill="#6DBEC7" d="M94 239c-3.006 3.006-5.824 2.596-10 3 5.625-4.312 5.625-4.312 10-3"/><path fill="#A4A09B" d="m126 148-1 4h-6c3.625-4 3.625-4 7-4"/></svg>